<svg version="1.0" xmlns="http://www.w3.org/2000/svg"
 width="300.000000pt" height="281.000000pt" viewBox="0 0 300.000000 281.000000"
 preserveAspectRatio="xMidYMid meet">
<g transform="translate(0.000000,281.000000) scale(0.100000,-0.100000)"
fill="#fff" stroke="#fff">
<path d="M1294 2344 c-4 -14 -4 -55 -1 -91 l6 -65 -43 40 c-24 22 -58 43 -75
47 -35 7 -86 -9 -94 -29 -9 -23 29 -90 91 -161 34 -39 62 -76 62 -83 0 -7 -23
6 -51 28 -27 22 -69 45 -91 52 -36 11 -42 10 -54 -7 -8 -10 -14 -25 -14 -34 0
-24 47 -97 75 -115 31 -20 24 -36 -15 -36 -43 0 -77 -16 -96 -45 -15 -23 -15
-29 -3 -52 8 -14 25 -33 38 -42 24 -15 46 -17 191 -20 l55 -2 -61 -28 c-60
-29 -104 -70 -104 -98 0 -8 9 -28 21 -44 29 -41 73 -39 160 7 38 20 72 34 75
32 3 -3 -8 -27 -25 -53 -16 -26 -44 -86 -61 -134 -100 -274 -97 -564 9 -861
50 -142 61 -164 74 -151 8 8 7 19 -6 41 -25 42 -85 212 -105 295 -12 51 -16
119 -16 255 0 169 2 194 27 291 28 108 71 226 89 244 6 7 8 -8 4 -44 -8 -67 0
-109 24 -141 16 -21 21 -23 43 -13 20 9 31 28 48 85 29 92 35 99 43 48 12 -77
107 -240 139 -240 24 0 57 58 57 100 0 19 -9 69 -20 110 -22 84 -13 112 15 49
21 -45 127 -159 148 -159 16 0 41 27 50 53 10 28 -18 85 -68 138 -25 27 -45
54 -45 62 0 7 -21 29 -47 49 -119 91 -129 130 -43 167 59 26 217 36 269 18 74
-26 60 -75 -30 -101 -49 -15 -74 -11 -251 41 -10 3 -18 1 -18 -5 0 -10 53 -30
138 -52 56 -14 158 -75 178 -106 15 -22 15 -26 0 -49 -21 -32 -39 -31 -104 5
-64 35 -65 17 -1 -22 69 -42 115 -33 133 27 9 30 -27 81 -74 105 -48 25 -51
40 -7 40 36 0 80 25 104 59 14 21 13 24 -8 47 -31 33 -90 47 -174 41 l-70 -5
40 32 c76 59 122 111 140 159 21 57 12 88 -34 112 -28 14 -34 14 -71 -1 -22
-9 -49 -28 -60 -42 -26 -32 -37 -22 -20 18 17 41 14 127 -5 157 -18 27 -65 31
-88 8 -8 -8 -23 -35 -33 -59 -22 -53 -31 -57 -40 -18 -26 113 -118 162 -155
82 l-16 -34 -13 25 c-7 13 -28 41 -48 62 -43 45 -79 49 -88 11z m83 -36 c55
-57 72 -94 83 -180 9 -73 22 -118 62 -215 20 -49 17 -87 -4 -53 -24 39 -144
230 -170 271 -24 38 -30 60 -35 132 -7 104 1 109 64 45z m178 -34 c13 -14 32
-49 41 -77 15 -45 16 -63 5 -162 -17 -151 -22 -176 -34 -172 -6 2 -15 16 -20
33 -5 16 -17 49 -27 74 -24 59 -62 263 -54 286 19 51 52 58 89 18z m214 -38
c25 -53 -8 -147 -114 -326 -67 -113 -76 -108 -50 26 9 44 20 106 27 139 14 75
45 160 65 181 23 22 56 13 72 -20z m-576 10 c42 -18 113 -83 140 -128 12 -21
57 -91 100 -158 42 -67 77 -127 77 -134 0 -50 -91 3 -177 101 -74 86 -180 217
-208 259 -24 35 -24 38 -9 56 20 22 34 22 77 4z m745 -138 c16 -16 15 -61 -2
-102 -17 -42 -107 -120 -194 -169 -93 -52 -92 -52 -109 -34 -15 15 -14 19 9
54 14 21 43 66 64 101 48 81 143 162 188 162 18 0 37 -5 44 -12z m-817 -56
c32 -16 165 -116 200 -151 9 -9 29 -27 45 -40 38 -33 15 -39 -45 -13 -25 12
-72 28 -104 37 -86 24 -182 122 -164 169 8 21 24 20 68 -2z m124 -203 c50 -16
114 -36 144 -42 59 -13 75 -31 39 -43 -37 -12 -361 -8 -386 5 -12 6 -27 21
-33 32 -14 27 9 54 59 67 60 16 82 14 177 -19z m354 -45 c20 -14 22 -23 18
-58 -3 -22 -14 -46 -24 -54 -23 -17 -83 -12 -96 9 -17 27 1 87 31 103 36 19
44 19 71 0z m-131 -86 c3 -23 -5 -32 -55 -64 -74 -47 -197 -104 -227 -104 -31
0 -60 33 -51 59 13 43 123 100 244 127 74 16 85 14 89 -18z m279 -141 c114
-121 149 -173 138 -206 -9 -30 -32 -32 -65 -5 -41 35 -141 170 -168 227 -26
56 -40 112 -26 106 6 -2 60 -57 121 -122z m-251 31 c-14 -130 -62 -274 -88
-266 -27 9 -39 52 -35 128 4 83 22 128 70 172 48 46 60 38 53 -34z m124 11
c49 -94 84 -327 56 -363 -22 -28 -39 -15 -84 63 -84 146 -110 322 -48 334 49
10 56 7 76 -34z"/>
</g>
</svg>
