<?xml version="1.0" standalone="no"?>
<!DOCTYPE svg PUBLIC "-//W3C//DTD SVG 20010904//EN"
 "http://www.w3.org/TR/2001/REC-SVG-20010904/DTD/svg10.dtd">
<svg version="1.0" xmlns="http://www.w3.org/2000/svg"
 width="1080.000000pt" height="1071.000000pt" viewBox="0 0 1080.000000 1071.000000"
 preserveAspectRatio="xMidYMid meet">

<g transform="translate(0.000000,1071.000000) scale(0.100000,-0.100000)"
fill="#000000" stroke="none">
<path d="M4850 7358 c-17 -28 -20 -51 -20 -148 0 -67 6 -134 14 -160 24 -81 3
-91 -64 -29 -97 88 -201 142 -300 154 -48 6 -61 3 -104 -20 -28 -15 -56 -34
-63 -43 -25 -32 0 -121 51 -183 12 -14 32 -41 46 -60 14 -18 56 -63 94 -99 80
-75 196 -206 196 -220 0 -6 -5 -10 -11 -10 -14 0 -127 68 -159 96 -60 53 -228
110 -301 102 -38 -4 -75 -62 -65 -102 9 -37 22 -32 23 9 1 20 7 43 14 51 30
36 204 -10 293 -76 22 -18 69 -50 103 -73 34 -23 89 -62 121 -87 33 -25 70
-52 83 -60 12 -8 41 -31 63 -51 23 -19 76 -61 119 -93 42 -31 77 -61 77 -67 0
-21 -74 -4 -207 50 -29 11 -81 25 -115 32 -35 6 -87 15 -117 20 -43 8 -142 42
-218 75 -6 3 -13 -4 -15 -18 -3 -19 -12 -25 -68 -36 -142 -29 -242 -71 -248
-106 -3 -15 4 -13 43 14 49 34 188 70 272 70 79 0 230 -38 558 -142 214 -67
258 -84 251 -97 -12 -19 -499 -65 -586 -55 -25 2 -121 6 -215 8 -93 2 -177 6
-185 9 -87 29 -107 40 -127 70 -13 18 -23 46 -23 63 0 22 -3 26 -10 14 -5 -8
-10 -22 -10 -30 0 -20 69 -100 87 -100 7 0 13 -3 13 -8 0 -8 42 -27 85 -37 17
-4 118 -8 225 -10 199 -4 306 -11 323 -22 15 -9 -35 -43 -64 -43 -34 0 -159
-54 -224 -96 -84 -55 -116 -94 -118 -146 -2 -39 4 -52 36 -91 40 -49 87 -70
157 -69 52 0 180 45 305 107 106 53 175 76 175 60 0 -5 -18 -31 -39 -60 -48
-63 -234 -441 -251 -510 -7 -27 -22 -70 -32 -93 -11 -24 -23 -67 -28 -95 -5
-29 -17 -74 -26 -102 -29 -86 -64 -420 -58 -543 2 -37 6 -103 8 -147 7 -123
25 -274 41 -335 8 -30 24 -95 36 -145 19 -82 67 -220 105 -302 8 -17 14 -34
14 -38 0 -3 8 -25 19 -48 10 -23 33 -76 50 -117 18 -41 39 -86 47 -100 8 -14
20 -37 25 -52 11 -29 37 -44 52 -29 12 12 0 66 -18 81 -12 10 -105 193 -105
206 0 3 -11 36 -26 72 -14 37 -37 99 -51 137 -15 39 -30 75 -34 80 -11 15 -59
197 -79 300 -43 219 -56 483 -33 695 24 230 30 263 52 320 11 30 21 62 21 71
0 30 80 262 128 369 69 158 118 230 136 201 3 -4 4 -77 4 -162 -2 -164 3 -185
64 -271 42 -60 131 -19 175 81 71 160 79 181 87 223 4 21 14 44 22 53 13 13
17 13 30 1 8 -8 14 -30 14 -48 0 -34 23 -78 34 -67 3 3 -1 30 -8 60 -33 127
-37 304 -7 381 11 31 23 34 128 42 85 6 83 7 146 -119 42 -83 58 -132 122
-365 13 -47 29 -98 36 -115 l13 -30 4 27 c2 14 -11 71 -27 124 -36 115 -39
154 -12 161 17 4 12 19 -48 138 -116 233 -115 233 -101 250 7 8 19 15 27 15 8
0 58 -42 111 -93 54 -51 117 -108 142 -126 25 -19 52 -41 60 -50 8 -9 33 -31
55 -49 22 -18 84 -77 138 -130 146 -145 191 -252 132 -316 -30 -33 -90 -36
-128 -6 -14 11 -29 20 -34 20 -5 0 -26 15 -48 32 -22 18 -33 24 -25 13 25 -32
50 -55 59 -55 5 0 11 -4 13 -8 2 -4 20 -18 41 -30 70 -40 144 -22 166 40 36
102 -13 199 -184 368 -64 63 -111 116 -105 118 21 7 9 32 -22 48 -76 39 -181
119 -281 216 -68 65 -69 68 -62 105 9 50 22 73 41 73 9 0 50 15 93 34 42 18
101 39 131 45 179 36 544 33 632 -6 53 -24 83 -62 74 -96 -13 -55 -124 -127
-195 -127 -18 0 -38 -17 -29 -25 2 -2 24 1 48 7 111 26 197 88 207 150 8 53
-16 84 -95 121 l-67 32 -235 1 c-157 1 -235 5 -238 12 -2 6 19 22 45 36 27 13
55 32 63 41 7 9 30 25 51 35 20 11 85 60 143 110 92 80 110 101 141 164 46 91
55 167 27 212 -21 33 -93 78 -139 88 -35 7 -165 -26 -200 -51 -14 -10 -35 -23
-45 -29 -11 -7 -37 -27 -57 -47 -43 -40 -76 -54 -84 -34 -3 8 13 50 36 93 39
75 41 84 41 164 0 103 -13 146 -61 194 -34 34 -40 36 -101 36 -67 0 -122 -25
-122 -56 0 -19 7 -18 40 6 38 27 81 34 122 21 79 -26 106 -183 56 -321 -11
-30 -23 -66 -26 -80 -11 -48 -105 -204 -168 -276 -11 -12 -30 -41 -44 -64 -39
-66 -174 -243 -187 -248 -29 -9 -28 29 7 223 74 405 97 499 151 613 21 46 39
89 39 95 0 27 -58 -58 -81 -118 -23 -63 -43 -85 -61 -67 -5 5 -21 45 -37 89
-26 73 -73 153 -90 153 -3 0 -14 14 -23 31 -12 19 -37 39 -74 56 -51 23 -60
24 -98 13 -80 -24 -91 -34 -106 -95 -8 -34 -22 -62 -34 -71 -19 -13 -19 -17
-7 -46 16 -40 26 -88 41 -188 6 -41 16 -97 22 -125 16 -75 104 -333 133 -389
28 -56 34 -116 10 -116 -8 0 -27 19 -42 43 -15 23 -60 85 -99 137 -39 52 -83
113 -97 135 -35 53 -86 121 -178 235 -88 110 -137 246 -146 410 -5 77 -2 102
11 128 9 18 23 32 32 32 25 0 111 -49 152 -87 7 -7 16 -13 20 -13 13 0 -65 74
-107 101 -59 38 -86 37 -111 -3z m617 -139 c39 -24 133 -158 133 -189 0 -11 7
-37 15 -56 32 -76 20 -266 -37 -596 -20 -120 -23 -128 -45 -128 -31 0 -41 24
-77 181 -3 15 -22 46 -41 69 -19 23 -35 50 -35 59 0 9 -5 22 -11 28 -8 8 -7
16 1 30 11 16 8 24 -20 52 -30 29 -32 36 -27 79 4 33 -1 70 -18 127 -37 127
-49 209 -36 246 6 18 11 42 11 55 0 58 118 86 187 43z m-900 -95 c36 -15 93
-46 127 -70 75 -53 179 -150 196 -184 12 -22 124 -167 140 -180 10 -8 87 -112
127 -172 21 -31 71 -105 111 -164 39 -60 81 -120 92 -134 26 -32 22 -58 -11
-83 -26 -19 -27 -19 -70 2 -140 68 -255 156 -412 316 -65 66 -198 201 -297
301 -137 139 -185 195 -209 242 -17 34 -31 67 -31 75 0 17 50 64 75 70 48 11
101 5 162 -19z m1898 -304 c69 -42 81 -99 44 -207 -31 -92 -122 -194 -246
-274 -101 -66 -112 -72 -248 -134 -44 -20 -114 -54 -156 -76 -92 -47 -116 -49
-154 -9 -34 36 -34 38 62 184 95 144 146 208 243 306 101 102 190 172 262 205
68 32 147 34 193 5z m-844 -703 c37 -20 46 -31 57 -70 12 -43 11 -49 -14 -99
-14 -29 -34 -61 -43 -72 -47 -53 -154 -66 -234 -27 -51 24 -55 31 -63 104 -5
47 -3 56 27 101 27 40 44 53 84 67 72 25 133 24 186 -4z m-356 -187 c5 -40 3
-65 -4 -74 -7 -8 -52 -35 -101 -60 -109 -56 -148 -78 -197 -110 -35 -23 -114
-56 -287 -120 -139 -52 -253 -23 -272 70 -6 34 14 85 46 116 50 48 220 124
320 143 19 4 62 15 95 25 33 11 92 24 130 30 39 6 97 17 130 24 33 8 76 14 97
15 l36 1 7 -60z m75 -135 c9 -11 10 -47 1 -160 -13 -188 -35 -278 -101 -420
-50 -108 -84 -147 -123 -143 -37 4 -60 33 -87 110 -18 51 -19 68 -10 181 13
173 47 255 143 350 45 44 127 95 153 97 6 0 17 -7 24 -15z"/>
<path d="M5080 7243 c0 -13 29 -38 35 -31 3 3 -4 13 -15 23 -11 10 -20 13 -20
8z"/>
<path d="M4312 6424 c10 -10 20 -15 24 -12 3 4 -5 12 -18 18 -22 12 -22 12 -6
-6z"/>
<path d="M5773 5984 c-11 -28 -9 -29 272 -93 192 -45 263 -69 410 -143 139
-70 185 -117 185 -189 0 -23 -10 -41 -39 -70 -50 -51 -57 -51 -221 -4 -14 4 1
-7 33 -24 80 -44 135 -50 182 -21 39 24 75 84 75 126 0 71 -76 148 -210 214
-60 30 -81 46 -86 65 -4 18 -15 26 -38 30 -129 21 -307 62 -428 99 -99 30
-126 32 -135 10z"/>
<path d="M5940 5343 c0 -15 19 -37 26 -31 3 4 -1 14 -10 23 -9 9 -16 13 -16 8z"/>
<path d="M5430 5249 c0 -15 7 -32 15 -39 19 -16 19 -11 0 31 -14 33 -14 33
-15 8z"/>
<path d="M5860 5067 c0 -38 -5 -88 -11 -111 -14 -56 -61 -113 -99 -121 -41 -9
-38 -25 4 -25 27 0 41 8 71 41 20 23 43 56 51 75 18 43 18 133 -1 175 l-14 34
-1 -68z"/>
<path d="M5570 5013 c0 -6 9 -21 20 -34 15 -18 19 -20 20 -8 0 9 -9 24 -20 34
-11 10 -20 13 -20 8z"/>
</g>
</svg>
